<?xml version="1.0" encoding="UTF-8"?>
<svg id="Vrstva_1" xmlns="http://www.w3.org/2000/svg" version="1.1" viewBox="0 0 640.2 287.2">
  <!-- Generator: Adobe Illustrator 29.2.1, SVG Export Plug-In . SVG Version: 2.1.0 Build 116)  -->
  <defs>
    <style>
      .st0 {
        fill: none;
      }

      .st1 {
        fill: #fff;
      }
    </style>
  </defs>
  <path class="st1" d="M107.2,162.3c-6.4-2-11.1-5-14.2-9-3-4-4.5-9.3-4.5-15.8s2.3-13.6,7-18.1c4.7-4.5,10.9-6.8,18.6-6.8s13,2,17.1,5.8c4.1,3.9,6.7,9.9,7.7,18l-15.2,2.1c-.8-4.5-1.9-7.6-3.4-9.5-1.5-1.9-3.7-2.8-6.7-2.8s-5.2.9-6.8,2.7c-1.6,1.8-2.4,4.4-2.4,7.9s.6,5.2,1.8,6.9c1.2,1.6,3.3,2.9,6.2,3.9l8.6,2.9c4.6,1.5,8.3,3.4,11.1,5.7,2.8,2.3,4.8,5,6.1,8.3,1.3,3.3,1.9,7.2,1.9,11.7,0,8-2.3,14.3-7,18.9-4.6,4.7-11,7-19,7-16.9,0-25.8-9.2-27-27.7h15.9c.4,4.9,1.5,8.4,3.2,10.6,1.8,2.2,4.5,3.3,8.1,3.3s5.5-1,7.2-2.9c1.7-1.9,2.6-4.7,2.6-8.4s-.7-5.8-2.1-7.8c-1.4-1.9-3.6-3.3-6.6-4.3l-8.4-2.6Z"/>
  <path class="st1" d="M192.7,114.7h16v54.6c0,10.6-2.3,18.7-7,24.3-4.7,5.6-11.4,8.4-20.3,8.4s-15.6-2.8-20.3-8.4c-4.7-5.6-7-13.7-7-24.3v-54.6h16v55.8c0,5.6.9,9.7,2.8,12.4,1.9,2.7,4.7,4.1,8.6,4.1s6.7-1.4,8.6-4.1c1.8-2.7,2.8-6.8,2.8-12.4v-55.8Z"/>
  <path class="st0" d="M258.2,199.8h16v54.6c0,10.6-2.3,18.7-7,24.3-4.7,5.6-11.4,8.4-20.3,8.4s-15.6-2.8-20.3-8.4c-4.7-5.6-7-13.7-7-24.3v-54.6h16v55.8c0,5.6.9,9.7,2.8,12.4,1.9,2.7,4.7,4.1,8.6,4.1s6.7-1.4,8.6-4.1c1.8-2.7,2.8-6.8,2.8-12.4v-55.8Z"/>
  <path class="st0" d="M350.6,0h16v54.6c0,10.6-2.3,18.7-7,24.3-4.7,5.6-11.4,8.4-20.3,8.4s-15.6-2.8-20.3-8.4c-4.7-5.6-7-13.7-7-24.3V0h16v55.8c0,5.6.9,9.7,2.8,12.4,1.9,2.7,4.7,4.1,8.6,4.1s6.7-1.4,8.6-4.1c1.8-2.7,2.8-6.8,2.8-12.4V0Z"/>
  <path class="st0" d="M552.8,125.2v-16h54.6c10.6,0,18.7,2.3,24.3,7,5.6,4.7,8.4,11.4,8.4,20.3s-2.8,15.6-8.4,20.3c-5.6,4.7-13.7,7-24.3,7h-54.6v-16h55.8c5.6,0,9.7-.9,12.4-2.8,2.7-1.9,4.1-4.7,4.1-8.6s-1.4-6.7-4.1-8.6c-2.7-1.8-6.8-2.8-12.4-2.8h-55.8Z"/>
  <path class="st0" d="M0,125.2v-16h54.6c10.6,0,18.7,2.3,24.3,7,5.6,4.7,8.4,11.4,8.4,20.3s-2.8,15.6-8.4,20.3c-5.6,4.7-13.7,7-24.3,7H0v-16h55.8c5.6,0,9.7-.9,12.4-2.8,2.7-1.9,4.1-4.7,4.1-8.6s-1.4-6.7-4.1-8.6c-2.7-1.8-6.8-2.8-12.4-2.8H0Z"/>
  <path class="st1" d="M248.7,155.7c8.3,0,12.5-4.5,12.5-13.6s-4.2-13.2-12.5-13.2h-6.2v26.8h6.2ZM227.1,199.8v-85.2h22.2c8.6,0,15.3,2.4,20.1,7.2,4.8,4.8,7.2,11.5,7.2,20s-2.4,15.5-7.3,20.5c-4.9,5-11.5,7.5-19.9,7.5h-6.9v30h-15.4Z"/>
  <polygon class="st1" points="334 172.5 309.5 116.8 309.5 172.5 295 172.5 295 87.3 310 87.3 334.4 143.1 334.4 87.3 348.9 87.3 348.9 172.5 334 172.5"/>
  <path class="st1" d="M395.8,162.9c0-5.7-.6-9.8-1.9-12.4-1.2-2.6-3.2-3.9-5.8-3.9s-4.7,1.3-6,3.8c-1.3,2.5-2.1,6.7-2.4,12.5h16.1ZM409.7,180.9c-.6,6.8-2.7,12-6.4,15.6-3.7,3.5-8.7,5.3-15.2,5.3s-13.7-2.6-17.5-7.9c-3.8-5.3-5.7-13.5-5.7-24.5s2-19.3,6-25.1c4-5.7,9.9-8.6,17.6-8.6s12.4,2.6,16,7.8c3.6,5.2,5.4,12.8,5.4,22.9v6.1h-30.4c.1,12.1,3.1,18.1,8.7,18.1s4-.7,5.1-2.2c1.1-1.5,1.9-4,2.3-7.5h14.1Z"/>
  <path class="st1" d="M423.5,199.8v-62.3h14.5v8.4c1.6-3,3.5-5.4,5.7-7,2.2-1.6,4.5-2.4,6.9-2.4s2.6.2,4.1.6l-1.7,14.3c-1.1-.3-2.6-.5-4.4-.5-2.9,0-5.3,1.1-7.2,3.2-1.9,2.1-2.9,4.8-2.9,8v37.7h-15Z"/>
  <path class="st1" d="M490.5,171.1l-4.5.5c-3.4.3-6,1.3-7.9,3.1-1.8,1.7-2.8,4.1-2.8,7s.5,4.6,1.6,6c1.1,1.4,2.6,2.1,4.7,2.1s4.9-1.1,6.5-3.4c1.6-2.3,2.4-5.4,2.4-9.2v-6.1ZM491.1,199.8v-6.9c-1.7,2.7-3.8,4.8-6.3,6.3-2.5,1.5-5.1,2.2-8,2.2-4.8,0-8.6-1.6-11.3-4.9-2.7-3.3-4.1-7.8-4.1-13.6s2-11.2,6-14.9c4-3.6,9.7-5.7,17.1-6.4l6.1-.5v-3.7c0-3.7-.5-6.5-1.6-8.2-1.1-1.7-2.8-2.6-5.1-2.6s-3.7.7-4.9,2c-1.1,1.4-1.9,3.5-2.4,6.4l-13.4-1.2c.9-6.2,3.1-10.8,6.6-13.8,3.5-3,8.4-4.5,14.6-4.5s12.1,1.9,15.4,5.7c3.3,3.8,4.9,9.7,4.9,17.7v40.8h-13.6Z"/>
  <path class="st1" d="M314,197.1c5,4,10.6,4.1,15.7.2,6-4.6,8.3-4.5,14.5,0,1.5,1.1,3.3,1.7,5.3,2.6v-11.1c-1.7-.9-3.2-1.8-4.6-2.8-5.3-4-10.7-4.1-15.9,0-5.7,4.4-8.3,4.4-14,0-5.1-4-10.5-3.9-15.7-.1-1.5,1.1-3.1,2-4.8,3v11c2.2-.3,4-1.5,5.8-2.8,5.4-4.2,8.4-4.2,13.8,0"/>
  <g>
    <path class="st1" d="M505.2,121.8v-5.9c3-3,5.4-5.5,7.2-7.6,2.1-2.3,3.5-4.2,4.2-5.6.8-1.4,1.1-3,1.1-4.5,0-2.6-.9-3.9-2.7-3.9s-1.6.4-2.1,1.1c-.5.7-.8,1.9-1.1,3.5l-7.2-.8c.4-3.5,1.5-6.1,3.4-8,1.9-1.8,4.4-2.8,7.5-2.8s5.4.9,7.2,2.8c1.8,1.8,2.7,4.3,2.7,7.4s-.4,4.1-1.2,5.9c-.8,1.8-2.2,4-4.3,6.4-1.7,2-3.2,3.7-4.5,5h10.6l-.7,7h-20.2Z"/>
    <path class="st1" d="M542.8,121.8v-6.7h-12.1v-6.3l11.3-20.6h7.9v20.8h3l-.6,6.1h-2.4v6.7h-7ZM542.9,98.3l-5.8,10.8h5.8v-10.8Z"/>
  </g>
</svg>